# xmcd
#
# Track frame offsets:
#	150
#	13624
#	29449
#	43509
#	64244
#	79076
#	95295
#	110973
#
# Disc length: 1795 seconds
#
# Revision: 1
# Processed by: cddbd v1.5.2PL0 Copyright (c) Steve Scherf et al.
# Submitted via: audiograbber 1.83.01
#
DISCID=63070108
DTITLE=Tyler Childers - Live on Red Barn Radio I and II
DYEAR=2016
DGENRE=Country
TTITLE0=Shake The Frost
TTITLE1=Deadman's Curve
TTITLE2=Charleston Girl
TTITLE3=Whitehouse Road
TTITLE4=Rock Salt And Nails
TTITLE5=Coming Down
TTITLE6=Follow You To Virgie
TTITLE7=Bottles And Bibles
EXTD=
EXTT0=
EXTT1=
EXTT2=
EXTT3=
EXTT4=
EXTT5=
EXTT6=
EXTT7=
PLAYORDER=
